<?xml version="1.0" standalone="no"?>
<!DOCTYPE svg PUBLIC "-//W3C//DTD SVG 20010904//EN"
 "http://www.w3.org/TR/2001/REC-SVG-20010904/DTD/svg10.dtd">
<svg version="1.0" xmlns="http://www.w3.org/2000/svg"
 width="512.000000pt" height="512.000000pt" viewBox="0 0 512.000000 512.000000"
 preserveAspectRatio="xMidYMid meet">
<metadata>
Created by potrace 1.14, written by Peter Selinger 2001-2017
</metadata>
<g transform="translate(0.000000,512.000000) scale(0.100000,-0.100000)"
fill="#000000" stroke="none">
<path d="M2320 4949 c-215 -26 -356 -58 -535 -119 -121 -42 -138 -48 -276
-114 -291 -136 -611 -392 -819 -651 -287 -360 -462 -783 -517 -1255 -12 -102
-9 -456 6 -550 7 -47 15 -101 17 -120 26 -179 126 -473 229 -674 229 -445 579
-798 1025 -1033 174 -92 505 -209 640 -227 8 -1 31 -5 50 -9 127 -24 214 -31
410 -31 164 -1 330 8 363 19 7 2 28 6 47 9 408 63 830 262 1170 551 66 56 239
235 293 303 61 77 177 239 177 248 0 3 9 18 20 34 44 62 188 369 206 440 2 8
12 40 23 70 11 31 22 67 25 80 3 14 14 61 25 105 11 44 22 100 26 125 3 25 8
59 11 75 17 117 21 194 19 370 -1 110 -8 232 -14 270 -6 39 -14 86 -17 105
-77 470 -314 927 -664 1280 -270 272 -581 466 -945 588 -72 25 -207 60 -255
68 -19 3 -38 8 -42 10 -46 28 -543 51 -698 33z"/>
</g>
</svg>
